M48
; DRILL file {KiCad (6.0.5)} date Mon May 16 17:27:12 2022
; FORMAT={3:3/ absolute / metric / suppress leading zeros}
; #@! TF.CreationDate,2022-05-16T17:27:12-05:00
; #@! TF.GenerationSoftware,Kicad,Pcbnew,(6.0.5)
; #@! TF.FileFunction,MixedPlating,1,2
FMAT,2
METRIC,TZ
; #@! TA.AperFunction,Plated,PTH,ViaDrill
T1C0.300
; #@! TA.AperFunction,Plated,PTH,ViaDrill
T2C0.400
; #@! TA.AperFunction,Plated,PTH,ComponentDrill
T3C0.700
; #@! TA.AperFunction,Plated,PTH,ComponentDrill
T4C1.000
%
G90
G05
T1
X152670Y-89670
X155580Y-89940
X155630Y-98090
X156810Y-94880
X160190Y-93825
X161150Y-96485
X161586Y-95664
X161601Y-94760
X161869Y-97026
X161966Y-98776
X162120Y-97890
X162925Y-94632
X163417Y-93818
X164710Y-95051
X164800Y-90140
X165196Y-88331
X165370Y-94140
X165770Y-90280
X166644Y-90676
X166680Y-93200
X170130Y-89420
X172360Y-94210
X174790Y-93360
X176020Y-93310
T2
X163160Y-96390
X163670Y-97370
X164299Y-96448
X166464Y-101741
X167480Y-90228
X168590Y-101770
X170570Y-97024
X170590Y-91080
X173560Y-96300
X174590Y-97400
X174674Y-94446
X174697Y-100751
X174850Y-95430
X175480Y-100130
X175960Y-97370
X177304Y-95430
X179460Y-93520
X181950Y-100170
X183550Y-95620
T3
X152365Y-92460
X152365Y-93730
X152365Y-95000
X152365Y-96270
X152365Y-97540
X153635Y-92460
X153635Y-93730
X153635Y-95000
X153635Y-96270
X153635Y-97540
T4
X175590Y-89400
X178130Y-89400
X180670Y-89400
X183210Y-89400
T0
M30
