%TF.GenerationSoftware,KiCad,Pcbnew,(6.0.5)*%
%TF.CreationDate,2022-05-16T17:27:05-05:00*%
%TF.ProjectId,dap42,64617034-322e-46b6-9963-61645f706362,rev?*%
%TF.SameCoordinates,Original*%
%TF.FileFunction,Legend,Bot*%
%TF.FilePolarity,Positive*%
%FSLAX46Y46*%
G04 Gerber Fmt 4.6, Leading zero omitted, Abs format (unit mm)*
G04 Created by KiCad (PCBNEW (6.0.5)) date 2022-05-16 17:27:05*
%MOMM*%
%LPD*%
G01*
G04 APERTURE LIST*
%ADD10C,0.150000*%
G04 APERTURE END LIST*
D10*
X183940000Y-90740000D02*
X184025714Y-90692380D01*
X184154285Y-90692380D01*
X184282857Y-90740000D01*
X184368571Y-90835238D01*
X184411428Y-90930476D01*
X184454285Y-91120952D01*
X184454285Y-91263809D01*
X184411428Y-91454285D01*
X184368571Y-91549523D01*
X184282857Y-91644761D01*
X184154285Y-91692380D01*
X184068571Y-91692380D01*
X183940000Y-91644761D01*
X183897142Y-91597142D01*
X183897142Y-91263809D01*
X184068571Y-91263809D01*
X183511428Y-91692380D02*
X183511428Y-90692380D01*
X182997142Y-91692380D01*
X182997142Y-90692380D01*
X182568571Y-91692380D02*
X182568571Y-90692380D01*
X182354285Y-90692380D01*
X182225714Y-90740000D01*
X182140000Y-90835238D01*
X182097142Y-90930476D01*
X182054285Y-91120952D01*
X182054285Y-91263809D01*
X182097142Y-91454285D01*
X182140000Y-91549523D01*
X182225714Y-91644761D01*
X182354285Y-91692380D01*
X182568571Y-91692380D01*
X181068571Y-90692380D02*
X180511428Y-90692380D01*
X180811428Y-91073333D01*
X180682857Y-91073333D01*
X180597142Y-91120952D01*
X180554285Y-91168571D01*
X180511428Y-91263809D01*
X180511428Y-91501904D01*
X180554285Y-91597142D01*
X180597142Y-91644761D01*
X180682857Y-91692380D01*
X180940000Y-91692380D01*
X181025714Y-91644761D01*
X181068571Y-91597142D01*
X180254285Y-90692380D02*
X179954285Y-91692380D01*
X179654285Y-90692380D01*
X179440000Y-90692380D02*
X178882857Y-90692380D01*
X179182857Y-91073333D01*
X179054285Y-91073333D01*
X178968571Y-91120952D01*
X178925714Y-91168571D01*
X178882857Y-91263809D01*
X178882857Y-91501904D01*
X178925714Y-91597142D01*
X178968571Y-91644761D01*
X179054285Y-91692380D01*
X179311428Y-91692380D01*
X179397142Y-91644761D01*
X179440000Y-91597142D01*
X177297142Y-91597142D02*
X177340000Y-91644761D01*
X177468571Y-91692380D01*
X177554285Y-91692380D01*
X177682857Y-91644761D01*
X177768571Y-91549523D01*
X177811428Y-91454285D01*
X177854285Y-91263809D01*
X177854285Y-91120952D01*
X177811428Y-90930476D01*
X177768571Y-90835238D01*
X177682857Y-90740000D01*
X177554285Y-90692380D01*
X177468571Y-90692380D01*
X177340000Y-90740000D01*
X177297142Y-90787619D01*
X176911428Y-91692380D02*
X176911428Y-90692380D01*
X176397142Y-91692380D02*
X176782857Y-91120952D01*
X176397142Y-90692380D02*
X176911428Y-91263809D01*
X175368571Y-91644761D02*
X175240000Y-91692380D01*
X175025714Y-91692380D01*
X174940000Y-91644761D01*
X174897142Y-91597142D01*
X174854285Y-91501904D01*
X174854285Y-91406666D01*
X174897142Y-91311428D01*
X174940000Y-91263809D01*
X175025714Y-91216190D01*
X175197142Y-91168571D01*
X175282857Y-91120952D01*
X175325714Y-91073333D01*
X175368571Y-90978095D01*
X175368571Y-90882857D01*
X175325714Y-90787619D01*
X175282857Y-90740000D01*
X175197142Y-90692380D01*
X174982857Y-90692380D01*
X174854285Y-90740000D01*
X174554285Y-90692380D02*
X174340000Y-91692380D01*
X174168571Y-90978095D01*
X173997142Y-91692380D01*
X173782857Y-90692380D01*
X173440000Y-91692380D02*
X173440000Y-90692380D01*
X173225714Y-90692380D01*
X173097142Y-90740000D01*
X173011428Y-90835238D01*
X172968571Y-90930476D01*
X172925714Y-91120952D01*
X172925714Y-91263809D01*
X172968571Y-91454285D01*
X173011428Y-91549523D01*
X173097142Y-91644761D01*
X173225714Y-91692380D01*
X173440000Y-91692380D01*
X182304404Y-98802380D02*
X182304404Y-97802380D01*
X182066309Y-97802380D01*
X181923452Y-97850000D01*
X181828214Y-97945238D01*
X181780595Y-98040476D01*
X181732976Y-98230952D01*
X181732976Y-98373809D01*
X181780595Y-98564285D01*
X181828214Y-98659523D01*
X181923452Y-98754761D01*
X182066309Y-98802380D01*
X182304404Y-98802380D01*
X181352023Y-98516666D02*
X180875833Y-98516666D01*
X181447261Y-98802380D02*
X181113928Y-97802380D01*
X180780595Y-98802380D01*
X180447261Y-98802380D02*
X180447261Y-97802380D01*
X180066309Y-97802380D01*
X179971071Y-97850000D01*
X179923452Y-97897619D01*
X179875833Y-97992857D01*
X179875833Y-98135714D01*
X179923452Y-98230952D01*
X179971071Y-98278571D01*
X180066309Y-98326190D01*
X180447261Y-98326190D01*
X179018690Y-98135714D02*
X179018690Y-98802380D01*
X179256785Y-97754761D02*
X179494880Y-98469047D01*
X178875833Y-98469047D01*
X178542500Y-97897619D02*
X178494880Y-97850000D01*
X178399642Y-97802380D01*
X178161547Y-97802380D01*
X178066309Y-97850000D01*
X178018690Y-97897619D01*
X177971071Y-97992857D01*
X177971071Y-98088095D01*
X178018690Y-98230952D01*
X178590119Y-98802380D01*
X177971071Y-98802380D01*
X176828214Y-98754761D02*
X176685357Y-98802380D01*
X176447261Y-98802380D01*
X176352023Y-98754761D01*
X176304404Y-98707142D01*
X176256785Y-98611904D01*
X176256785Y-98516666D01*
X176304404Y-98421428D01*
X176352023Y-98373809D01*
X176447261Y-98326190D01*
X176637738Y-98278571D01*
X176732976Y-98230952D01*
X176780595Y-98183333D01*
X176828214Y-98088095D01*
X176828214Y-97992857D01*
X176780595Y-97897619D01*
X176732976Y-97850000D01*
X176637738Y-97802380D01*
X176399642Y-97802380D01*
X176256785Y-97850000D01*
X175971071Y-97802380D02*
X175399642Y-97802380D01*
X175685357Y-98802380D02*
X175685357Y-97802380D01*
X175066309Y-98802380D02*
X175066309Y-97802380D01*
X174732976Y-98516666D01*
X174399642Y-97802380D01*
X174399642Y-98802380D01*
X174018690Y-97802380D02*
X173399642Y-97802380D01*
X173732976Y-98183333D01*
X173590119Y-98183333D01*
X173494880Y-98230952D01*
X173447261Y-98278571D01*
X173399642Y-98373809D01*
X173399642Y-98611904D01*
X173447261Y-98707142D01*
X173494880Y-98754761D01*
X173590119Y-98802380D01*
X173875833Y-98802380D01*
X173971071Y-98754761D01*
X174018690Y-98707142D01*
X173018690Y-97897619D02*
X172971071Y-97850000D01*
X172875833Y-97802380D01*
X172637738Y-97802380D01*
X172542500Y-97850000D01*
X172494880Y-97897619D01*
X172447261Y-97992857D01*
X172447261Y-98088095D01*
X172494880Y-98230952D01*
X173066309Y-98802380D01*
X172447261Y-98802380D01*
X171685357Y-98278571D02*
X172018690Y-98278571D01*
X172018690Y-98802380D02*
X172018690Y-97802380D01*
X171542500Y-97802380D01*
X170637738Y-98802380D02*
X171209166Y-98802380D01*
X170923452Y-98802380D02*
X170923452Y-97802380D01*
X171018690Y-97945238D01*
X171113928Y-98040476D01*
X171209166Y-98088095D01*
X170018690Y-97802380D02*
X169923452Y-97802380D01*
X169828214Y-97850000D01*
X169780595Y-97897619D01*
X169732976Y-97992857D01*
X169685357Y-98183333D01*
X169685357Y-98421428D01*
X169732976Y-98611904D01*
X169780595Y-98707142D01*
X169828214Y-98754761D01*
X169923452Y-98802380D01*
X170018690Y-98802380D01*
X170113928Y-98754761D01*
X170161547Y-98707142D01*
X170209166Y-98611904D01*
X170256785Y-98421428D01*
X170256785Y-98183333D01*
X170209166Y-97992857D01*
X170161547Y-97897619D01*
X170113928Y-97850000D01*
X170018690Y-97802380D01*
X169352023Y-97802380D02*
X168732976Y-97802380D01*
X169066309Y-98183333D01*
X168923452Y-98183333D01*
X168828214Y-98230952D01*
X168780595Y-98278571D01*
X168732976Y-98373809D01*
X168732976Y-98611904D01*
X168780595Y-98707142D01*
X168828214Y-98754761D01*
X168923452Y-98802380D01*
X169209166Y-98802380D01*
X169304404Y-98754761D01*
X169352023Y-98707142D01*
X167732976Y-98707142D02*
X167780595Y-98754761D01*
X167923452Y-98802380D01*
X168018690Y-98802380D01*
X168161547Y-98754761D01*
X168256785Y-98659523D01*
X168304404Y-98564285D01*
X168352023Y-98373809D01*
X168352023Y-98230952D01*
X168304404Y-98040476D01*
X168256785Y-97945238D01*
X168161547Y-97850000D01*
X168018690Y-97802380D01*
X167923452Y-97802380D01*
X167780595Y-97850000D01*
X167732976Y-97897619D01*
X167161547Y-98230952D02*
X167256785Y-98183333D01*
X167304404Y-98135714D01*
X167352023Y-98040476D01*
X167352023Y-97992857D01*
X167304404Y-97897619D01*
X167256785Y-97850000D01*
X167161547Y-97802380D01*
X166971071Y-97802380D01*
X166875833Y-97850000D01*
X166828214Y-97897619D01*
X166780595Y-97992857D01*
X166780595Y-98040476D01*
X166828214Y-98135714D01*
X166875833Y-98183333D01*
X166971071Y-98230952D01*
X167161547Y-98230952D01*
X167256785Y-98278571D01*
X167304404Y-98326190D01*
X167352023Y-98421428D01*
X167352023Y-98611904D01*
X167304404Y-98707142D01*
X167256785Y-98754761D01*
X167161547Y-98802380D01*
X166971071Y-98802380D01*
X166875833Y-98754761D01*
X166828214Y-98707142D01*
X166780595Y-98611904D01*
X166780595Y-98421428D01*
X166828214Y-98326190D01*
X166875833Y-98278571D01*
X166971071Y-98230952D01*
X182399642Y-99745714D02*
X182161547Y-100412380D01*
X181923452Y-99745714D01*
X181018690Y-100412380D02*
X181590119Y-100412380D01*
X181304404Y-100412380D02*
X181304404Y-99412380D01*
X181399642Y-99555238D01*
X181494880Y-99650476D01*
X181590119Y-99698095D01*
X180590119Y-100317142D02*
X180542500Y-100364761D01*
X180590119Y-100412380D01*
X180637738Y-100364761D01*
X180590119Y-100317142D01*
X180590119Y-100412380D01*
X179923452Y-99412380D02*
X179828214Y-99412380D01*
X179732976Y-99460000D01*
X179685357Y-99507619D01*
X179637738Y-99602857D01*
X179590119Y-99793333D01*
X179590119Y-100031428D01*
X179637738Y-100221904D01*
X179685357Y-100317142D01*
X179732976Y-100364761D01*
X179828214Y-100412380D01*
X179923452Y-100412380D01*
X180018690Y-100364761D01*
X180066309Y-100317142D01*
X180113928Y-100221904D01*
X180161547Y-100031428D01*
X180161547Y-99793333D01*
X180113928Y-99602857D01*
X180066309Y-99507619D01*
X180018690Y-99460000D01*
X179923452Y-99412380D01*
X176875833Y-100412380D02*
X176875833Y-99412380D01*
X176494880Y-99412380D01*
X176399642Y-99460000D01*
X176352023Y-99507619D01*
X176304404Y-99602857D01*
X176304404Y-99745714D01*
X176352023Y-99840952D01*
X176399642Y-99888571D01*
X176494880Y-99936190D01*
X176875833Y-99936190D01*
X175923452Y-100364761D02*
X175780595Y-100412380D01*
X175542500Y-100412380D01*
X175447261Y-100364761D01*
X175399642Y-100317142D01*
X175352023Y-100221904D01*
X175352023Y-100126666D01*
X175399642Y-100031428D01*
X175447261Y-99983809D01*
X175542500Y-99936190D01*
X175732976Y-99888571D01*
X175828214Y-99840952D01*
X175875833Y-99793333D01*
X175923452Y-99698095D01*
X175923452Y-99602857D01*
X175875833Y-99507619D01*
X175828214Y-99460000D01*
X175732976Y-99412380D01*
X175494880Y-99412380D01*
X175352023Y-99460000D01*
X174732976Y-99936190D02*
X174732976Y-100412380D01*
X175066309Y-99412380D02*
X174732976Y-99936190D01*
X174399642Y-99412380D01*
X173875833Y-99412380D02*
X173685357Y-99412380D01*
X173590119Y-99460000D01*
X173494880Y-99555238D01*
X173447261Y-99745714D01*
X173447261Y-100079047D01*
X173494880Y-100269523D01*
X173590119Y-100364761D01*
X173685357Y-100412380D01*
X173875833Y-100412380D01*
X173971071Y-100364761D01*
X174066309Y-100269523D01*
X174113928Y-100079047D01*
X174113928Y-99745714D01*
X174066309Y-99555238D01*
X173971071Y-99460000D01*
X173875833Y-99412380D01*
X173018690Y-100412380D02*
X173018690Y-99412380D01*
X172447261Y-100412380D01*
X172447261Y-99412380D01*
X171971071Y-100412380D02*
X171971071Y-99412380D01*
X170923452Y-100317142D02*
X170971071Y-100364761D01*
X171113928Y-100412380D01*
X171209166Y-100412380D01*
X171352023Y-100364761D01*
X171447261Y-100269523D01*
X171494880Y-100174285D01*
X171542500Y-99983809D01*
X171542500Y-99840952D01*
X171494880Y-99650476D01*
X171447261Y-99555238D01*
X171352023Y-99460000D01*
X171209166Y-99412380D01*
X171113928Y-99412380D01*
X170971071Y-99460000D01*
X170923452Y-99507619D01*
X182018690Y-101022380D02*
X182018690Y-101736666D01*
X182066309Y-101879523D01*
X182161547Y-101974761D01*
X182304404Y-102022380D01*
X182399642Y-102022380D01*
X181399642Y-102022380D02*
X181494880Y-101974761D01*
X181542500Y-101927142D01*
X181590119Y-101831904D01*
X181590119Y-101546190D01*
X181542500Y-101450952D01*
X181494880Y-101403333D01*
X181399642Y-101355714D01*
X181256785Y-101355714D01*
X181161547Y-101403333D01*
X181113928Y-101450952D01*
X181066309Y-101546190D01*
X181066309Y-101831904D01*
X181113928Y-101927142D01*
X181161547Y-101974761D01*
X181256785Y-102022380D01*
X181399642Y-102022380D01*
X180637738Y-101355714D02*
X180637738Y-102022380D01*
X180637738Y-101450952D02*
X180590119Y-101403333D01*
X180494880Y-101355714D01*
X180352023Y-101355714D01*
X180256785Y-101403333D01*
X180209166Y-101498571D01*
X180209166Y-102022380D01*
X179304404Y-102022380D02*
X179304404Y-101498571D01*
X179352023Y-101403333D01*
X179447261Y-101355714D01*
X179637738Y-101355714D01*
X179732976Y-101403333D01*
X179304404Y-101974761D02*
X179399642Y-102022380D01*
X179637738Y-102022380D01*
X179732976Y-101974761D01*
X179780595Y-101879523D01*
X179780595Y-101784285D01*
X179732976Y-101689047D01*
X179637738Y-101641428D01*
X179399642Y-101641428D01*
X179304404Y-101593809D01*
X178971071Y-101355714D02*
X178590119Y-101355714D01*
X178828214Y-101022380D02*
X178828214Y-101879523D01*
X178780595Y-101974761D01*
X178685357Y-102022380D01*
X178590119Y-102022380D01*
X178256785Y-102022380D02*
X178256785Y-101022380D01*
X177828214Y-102022380D02*
X177828214Y-101498571D01*
X177875833Y-101403333D01*
X177971071Y-101355714D01*
X178113928Y-101355714D01*
X178209166Y-101403333D01*
X178256785Y-101450952D01*
X176923452Y-102022380D02*
X176923452Y-101498571D01*
X176971071Y-101403333D01*
X177066309Y-101355714D01*
X177256785Y-101355714D01*
X177352023Y-101403333D01*
X176923452Y-101974761D02*
X177018690Y-102022380D01*
X177256785Y-102022380D01*
X177352023Y-101974761D01*
X177399642Y-101879523D01*
X177399642Y-101784285D01*
X177352023Y-101689047D01*
X177256785Y-101641428D01*
X177018690Y-101641428D01*
X176923452Y-101593809D01*
X176447261Y-101355714D02*
X176447261Y-102022380D01*
X176447261Y-101450952D02*
X176399642Y-101403333D01*
X176304404Y-101355714D01*
X176161547Y-101355714D01*
X176066309Y-101403333D01*
X176018690Y-101498571D01*
X176018690Y-102022380D01*
X174780595Y-102022380D02*
X174780595Y-101022380D01*
X174447261Y-101736666D01*
X174113928Y-101022380D01*
X174113928Y-102022380D01*
X173209166Y-101355714D02*
X173209166Y-102022380D01*
X173637738Y-101355714D02*
X173637738Y-101879523D01*
X173590119Y-101974761D01*
X173494880Y-102022380D01*
X173352023Y-102022380D01*
X173256785Y-101974761D01*
X173209166Y-101927142D01*
X172590119Y-102022380D02*
X172685357Y-101974761D01*
X172732976Y-101879523D01*
X172732976Y-101022380D01*
X172066309Y-102022380D02*
X172161547Y-101974761D01*
X172209166Y-101879523D01*
X172209166Y-101022380D01*
X171304404Y-101974761D02*
X171399642Y-102022380D01*
X171590119Y-102022380D01*
X171685357Y-101974761D01*
X171732976Y-101879523D01*
X171732976Y-101498571D01*
X171685357Y-101403333D01*
X171590119Y-101355714D01*
X171399642Y-101355714D01*
X171304404Y-101403333D01*
X171256785Y-101498571D01*
X171256785Y-101593809D01*
X171732976Y-101689047D01*
X170828214Y-101355714D02*
X170828214Y-102022380D01*
X170828214Y-101450952D02*
X170780595Y-101403333D01*
X170685357Y-101355714D01*
X170542500Y-101355714D01*
X170447261Y-101403333D01*
X170399642Y-101498571D01*
X170399642Y-102022380D01*
M02*
